<?xml version="1.0" standalone="no"?>
<!DOCTYPE svg PUBLIC "-//W3C//DTD SVG 20010904//EN"
 "http://www.w3.org/TR/2001/REC-SVG-20010904/DTD/svg10.dtd">
<svg version="1.0" xmlns="http://www.w3.org/2000/svg"
 width="1000.000000pt" height="1080.000000pt" viewBox="0 0 1000.000000 1080.000000"
 preserveAspectRatio="xMidYMid meet">
<metadata>
Created by potrace 1.16, written by Peter Selinger 2001-2019
</metadata>
<g transform="translate(0.000000,1080.000000) scale(0.100000,-0.100000)"
fill="#000000" stroke="none">
<path d="M2499 9815 c-119 -38 -178 -184 -119 -295 34 -65 1087 -1550 1122
-1582 22 -21 49 -38 60 -38 11 0 74 21 140 48 108 42 122 50 134 79 20 47 17
104 -8 154 -13 24 -153 229 -312 454 -160 226 -397 563 -529 750 -244 346
-283 397 -327 420 -41 21 -111 26 -161 10z"/>
<path d="M7326 9815 c-22 -7 -51 -22 -65 -33 -26 -19 -1097 -1528 -1132 -1594
-19 -38 -27 -141 -11 -164 4 -5 48 -25 97 -44 50 -18 113 -43 142 -56 l52 -22
31 23 c49 36 1137 1583 1151 1637 25 92 -19 196 -99 237 -54 27 -119 34 -166
16z"/>
<path d="M3045 6120 c-14 -6 -2 -9 42 -9 158 -2 305 -119 354 -283 30 -99 24
-229 -14 -312 -53 -115 -138 -193 -249 -228 -124 -38 -251 -9 -349 79 -175
159 -193 425 -40 612 37 46 40 51 15 34 -46 -33 -146 -143 -182 -199 -148
-234 -148 -551 -1 -801 43 -73 159 -188 231 -231 294 -174 669 -83 862 207 87
130 126 263 126 427 0 331 -218 630 -511 699 -69 16 -251 19 -284 5z m361
-861 c42 -39 57 -77 52 -134 -7 -82 -60 -135 -135 -135 -140 0 -191 200 -71
279 44 29 117 24 154 -10z"/>
<path d="M6666 6114 c-73 -18 -173 -70 -248 -129 -112 -89 -209 -253 -243
-409 -26 -116 -17 -293 19 -401 39 -115 98 -209 186 -297 207 -205 518 -244
768 -96 71 42 187 158 231 231 147 248 147 567 -1 801 -36 57 -137 166 -183
199 -27 20 -26 17 11 -28 56 -66 82 -123 100 -208 63 -299 -202 -571 -477
-491 -112 33 -199 110 -252 223 -63 134 -45 325 41 439 78 105 181 161 295
163 44 0 56 3 42 9 -32 14 -224 10 -289 -6z m78 -843 c123 -77 74 -281 -68
-281 -130 0 -186 175 -84 266 12 12 30 24 38 27 32 12 84 6 114 -12z"/>
<path d="M0 400 l0 -400 5000 0 5000 0 0 400 0 400 -5000 0 -5000 0 0 -400z
m1395 106 c25 -11 33 -19 29 -30 -7 -19 -5 -19 -40 -1 -36 18 -55 19 -78 2
-28 -21 -9 -45 49 -62 87 -25 108 -74 54 -127 -29 -29 -33 -30 -90 -25 -68 6
-72 8 -64 29 5 13 12 14 40 5 50 -15 100 1 100 33 0 16 -8 28 -25 36 -87 40
-105 51 -108 67 -14 70 53 106 133 73z m587 -48 l3 -62 36 32 c20 18 45 32 55
32 14 0 9 -9 -21 -40 l-39 -40 42 -60 c40 -57 41 -60 20 -60 -16 0 -32 14 -53
45 -16 25 -33 45 -37 45 -5 0 -8 -20 -8 -45 0 -38 -3 -45 -20 -45 -19 0 -20 7
-20 130 0 122 1 130 20 130 16 0 19 -8 22 -62z m-1353 -24 c12 -15 21 -40 21
-55 0 -29 0 -29 -65 -29 -72 0 -83 -12 -44 -51 17 -17 30 -20 65 -16 43 4 59
-5 28 -17 -45 -17 -106 3 -123 41 -45 98 56 206 118 127z m456 3 c20 -16 28
-35 32 -69 5 -42 3 -50 -25 -78 -41 -41 -83 -41 -124 0 -28 28 -30 36 -25 78
9 82 84 119 142 69z m622 8 c30 -21 44 -75 32 -120 -25 -88 -143 -88 -168 0
-20 72 20 135 84 135 17 0 40 -7 52 -15z"/>
<path d="M986 424 c-50 -50 -21 -144 44 -144 48 0 80 50 66 104 -13 53 -75 75
-110 40z"/>
</g>
</svg>
